<svg xmlns="http://www.w3.org/2000/svg" height="512" width="512" xmlns:v="https://vecta.io/nano"><path d="M451 440.78v30H106c-24.85 0-45-20.15-45-45 0-12.42 5.04-23.681 13.18-31.82s19.4-13.18 31.82-13.18h5 40 40 40 200 20v30 30z" fill="#febe76"/><path d="M66.833 436.78c0-12.42 5.04-23.681 13.18-31.82s19.4-13.18 31.82-13.18h5 40 40 40 200H451v-11h-20-200-40-40-40-5c-12.42 0-23.68 5.04-31.82 13.18S61 413.36 61 425.78c0 9.831 3.163 18.92 8.514 26.323-1.732-4.783-2.681-9.942-2.681-15.323z" fill="#e8a664"/><path d="M151 380.78h-40v-70h20 220 10 70v70H231h-40z" fill="#fff2d4"/><path d="M120.583 320.78h20 220.001 10H431v-10h-70-10-220-20v70h9.583z" fill="#f0dca0"/><path d="M351 310.78H131v-100h105.95 38.99H361c13.8 0 26.3 5.6 35.35 14.65S411 246.98 411 260.78c0 27.609-22.39 50-50 50h-10z" fill="#fcd884"/><path d="M142.554 222.78h105.95 38.99 85.061c11.134 0 21.419 3.65 29.732 9.812a50.34 50.34 0 0 0-5.938-7.162c-9.05-9.05-21.55-14.65-35.35-14.65h-85.06-38.99H131v100h11.554v-88z" fill="#eabf6a"/><path d="M258.2 90.41c7.22-11.07 19.87-18.36 34.06-18.36 76.62 0 25.84 138.73-16.319 138.73-6.811 0-13.15-1.81-18.591-4.53h-.91-.91c-5.44 2.72-11.78 4.53-18.58 4.53-42.17 0-92.95-138.73-16.33-138.73 15.42 0 29.02 8.61 35.82 21.31a36.43 36.43 0 0 1 1.76-2.95z" fill="#ff7979"/><path d="M230.899 79.8a40.72 40.72 0 0 1 19.137 4.768c-7.411-7.716-17.905-12.518-29.416-12.518-69.614 0-34.062 114.508 4.65 135.452C191.3 174.668 167.537 79.8 230.899 79.8z" fill="#d65b5b"/><path d="M251 250.78h20v20h-20zm-30 0h20v20h-20zm-30 0h20v20h-20zm-30 0h20v20h-20zm290 225H106c-27.57 0-50-22.43-50-50 0-13.356 5.201-25.913 14.645-35.355A49.67 49.67 0 0 1 106 375.78h5a5 5 0 1 1 0 10h-5c-10.685 0-20.729 4.16-28.284 11.715S66 415.095 66 425.78c0 22.056 17.944 40 40 40h340v-80h-15a5 5 0 1 1 0-10h20a5 5 0 0 1 5 5v90a5 5 0 0 1-5 5zm-90-160a5 5 0 1 1 0-10c24.813 0 45-20.187 45-45 0-12.014-4.683-23.313-13.186-31.814S373.012 215.78 361 215.78H136v95a5 5 0 1 1-10 0v-100a5 5 0 0 1 5-5h230c14.685 0 28.494 5.723 38.885 16.115S416 246.095 416 260.78c0 30.327-24.673 55-55 55z"/><path d="M431 385.78H111a5 5 0 0 1-5-5v-70a5 5 0 0 1 5-5h320a5 5 0 0 1 5 5v70a5 5 0 0 1-5 5zm-315-10h310v-60H116v60z"/><use href="#B"/><use href="#B" x="40"/><use href="#B" x="80"/><use href="#C"/><use href="#C" y="-30"/><path d="M351 315.78a5 5 0 0 1-5-5v-70a5 5 0 1 1 10 0v70a5 5 0 0 1-5 5zm-75.06-100c-6.542 0-13.253-1.524-19.5-4.419-6.247 2.895-12.954 4.419-19.49 4.419-14.143 0-29.514-12.598-42.172-34.564-11.76-20.408-18.781-44.714-18.781-65.019 0-14.341 3.391-25.902 10.077-34.362 7.753-9.81 19.376-14.784 34.546-14.784 14.17 0 27.294 6.449 35.828 17.238 8.579-10.855 21.687-17.238 35.812-17.238 15.17 0 26.793 4.974 34.547 14.785 6.687 8.461 10.077 20.022 10.077 34.363 0 20.305-7.021 44.61-18.778 65.018-12.658 21.965-28.026 34.563-42.166 34.563zm-20.41-14.53h1.82a5 5 0 0 1 2.236.528c5.236 2.618 10.892 4.002 16.354 4.002 10.159 0 22.995-11.325 33.5-29.557 10.76-18.673 17.443-41.674 17.443-60.025 0-11.866-2.739-21.604-7.923-28.163-5.761-7.29-14.744-10.985-26.701-10.985-12.133 0-23.3 6.016-29.871 16.092-.562.846-1.072 1.702-1.54 2.576a5 5 0 0 1-8.817.002c-6.167-11.517-18.203-18.67-31.412-18.67-11.957 0-20.94 3.696-26.701 10.985-5.183 6.558-7.923 16.296-7.923 28.162 0 39.35 28.572 89.583 50.954 89.583 5.457 0 11.108-1.384 16.343-4.002.696-.347 1.461-.528 2.238-.528z"/><path d="M258.246 95.641c-2.252 0-4.296-1.531-4.854-3.816l-.089-.391c-10.052-41.71 8.759-53.958 9.566-54.459l5.279 8.492.09-.058c-.136.093-13.453 9.676-5.18 43.824.019.078.036.156.051.234a5 5 0 0 1-3.676 6.03 4.94 4.94 0 0 1-1.187.144zm13.478 90.06c-1.577 0-3.13-.745-4.103-2.137a5 5 0 0 1 1.235-6.962c13.325-9.311 17.975-26.965 18.02-27.142.686-2.676 3.413-4.288 6.084-3.603a5 5 0 0 1 3.604 6.084c-.223.87-5.648 21.447-21.98 32.858-.873.609-1.871.902-2.86.902z"/><defs ><path id="B" d="M151 385.78a5 5 0 0 1-5-5v-40a5 5 0 1 1 10 0v40a5 5 0 0 1-5 5z"/><path id="C" d="M451 445.78H131a5 5 0 1 1 0-10h320a5 5 0 1 1 0 10z"/></defs></svg>